<?xml version="1.0" encoding="utf-8"?>
<!--
  Rabbu STR Lending Partner badge
  Rate Hero, Inc. · For use on goratehero.com
  Mirrors the structural layout of BP_Featured-Lender-White_500W.png:
    [WORDMARK]
    [DIVIDER]
    [STR LENDING PARTNER]
  Transparent background — designed to sit on a dark navy card.
-->
<svg xmlns="http://www.w3.org/2000/svg" viewBox="0 0 500 200" width="500" height="200" role="img" aria-label="Rabbu STR Lending Partner">
  <defs>
    <style>
      .wordmark { fill: #FFFFFF; fill-rule: evenodd; clip-rule: evenodd; }
      .divider  { stroke: #FFFFFF; stroke-opacity: 0.35; stroke-width: 1; }
      .subtitle {
        fill: #FFFFFF;
        font-family: 'Plus Jakarta Sans', 'Helvetica Neue', Arial, sans-serif;
        font-weight: 700;
        font-size: 13px;
        letter-spacing: 5px;
        text-anchor: middle;
      }
    </style>
  </defs>

  <!--
    Rabbu wordmark group
    Source viewBox: 0 0 1045.3 206.4
    Scale factor: 0.2678  →  rendered size ≈ 280×55
    Centered at (250, 72)
  -->
  <g transform="translate(110, 45) scale(0.2678)">
    <g>
      <polygon class="wordmark" points="308.9,206.3 209.5,206.3 258.7,106.6"/>
      <polygon class="wordmark" points="414.8,206.3 358.6,206.3 283.2,56.4 311.1,0"/>
      <path class="wordmark" d="M0,0h94.3c26.2,0,46.6,7.4,60.1,20.9c11.5,11.5,17.7,27.7,17.7,47.2v0.6c0,33.3-18,54.2-44.2,64
        l50.4,73.7h-53l-44.2-66H45.4v66H0V0z M91.4,100.2c22.1,0,34.8-11.8,34.8-29.2v-0.6c0-19.5-13.6-29.5-35.7-29.5H45.4v59.2
        L91.4,100.2L91.4,100.2z"/>
      <path class="wordmark" d="M445.9,0h95.8c23.6,0,42.1,6.5,53.9,18.3c9.4,9.4,14.1,20.9,14.1,35.1V54
        c0,23.3-12.4,36.3-27.1,44.5c23.9,9.1,38.6,23,38.6,50.7v0.6c0,37.7-30.7,56.6-77.2,56.6h-98.1V0z M532,83.4
        c20,0,32.7-6.5,32.7-21.8V61c0-13.6-10.6-21.2-29.8-21.2h-44.8v43.6C490.1,83.4,532,83.4,532,83.4z M544,166.5
        c20,0,32.1-7.1,32.1-22.4v-0.6c0-13.9-10.3-22.4-33.6-22.4H490v45.4H544z"/>
      <path class="wordmark" d="M658.7,0h95.8c23.6,0,42.1,6.5,53.9,18.3c9.4,9.4,14.1,20.9,14.1,35.1V54
        c0,23.3-12.4,36.3-27.1,44.5c23.9,9.1,38.6,23,38.6,50.7v0.6c0,37.7-30.7,56.6-77.2,56.6h-98.1V0z M744.7,83.4
        c20,0,32.7-6.5,32.7-21.8V61c0-13.6-10.6-21.2-29.8-21.2h-44.8v43.6C702.8,83.4,744.7,83.4,744.7,83.4z M756.8,166.5
        c20,0,32.1-7.1,32.1-22.4v-0.6c0-13.9-10.3-22.4-33.6-22.4h-52.5v45.4H756.8z"/>
      <path class="wordmark" d="M868.2,116.1V0h44.7v114.9c0,33.1,16.5,50.2,43.8,50.2s43.8-16.5,43.8-48.7V0h44.7v114.6
        c0,61.5-34.6,91.7-89.1,91.7C901.6,206.4,868.2,175.9,868.2,116.1z"/>
    </g>
  </g>

  <!-- Divider line -->
  <line class="divider" x1="170" y1="128" x2="330" y2="128"/>

  <!-- STR LENDING PARTNER -->
  <text class="subtitle" x="253" y="160">STR LENDING PARTNER</text>
</svg>
